<svg xmlns="http://www.w3.org/2000/svg" xmlns:xlink="http://www.w3.org/1999/xlink" id="Layer_1" x="0px" y="0px" viewBox="0 0 174 52" style="enable-background:new 0 0 174 52;" xml:space="preserve">
<style type="text/css">
	.st0{fill:#227CBF;}
	.st1{fill:#47B65C;}
	.st2{opacity:0.12;fill:#FFFFFF;}
</style>
<g>
	<g>
		<g>
			<path class="st0" d="M7.4,2.4h4.1v22.3H7.4V2.4z"></path>
			<path class="st0" d="M16.5,8h3.7v1.5c0.5-0.7,1.2-1.2,2-1.6c0.8-0.4,1.7-0.5,2.6-0.5c0.9,0,1.7,0.2,2.6,0.5     c0.8,0.4,1.6,0.9,2.2,1.5l0.4,0.5c0.6,0.8,1,1.7,1.1,2.6c0.2,0.9,0.2,2.1,0.2,3.4v8.6h-4v-7.9c0-1,0-1.9-0.1-2.4     c-0.1-0.6-0.3-1.1-0.6-1.6c-0.3-0.5-0.7-0.8-1.2-1.1c-0.5-0.2-1-0.4-1.5-0.4c-0.6,0-1.1,0.1-1.6,0.4c-0.5,0.3-0.9,0.6-1.1,1     c-0.2,0.4-0.4,0.9-0.5,1.4c-0.1,0.6-0.2,1.4-0.2,2.4v0.5v7.6h-4V8z"></path>
			<path class="st0" d="M35.7,11.6h-1.4V8h1.4c0-1.7,0.5-3.1,1.5-4.3c1-1.2,2.3-1.8,4-1.8h1.1v4c-1,0-1.6,0.1-2,0.3     c-0.4,0.2-0.5,0.8-0.5,1.7h2.3v3.6h-2.3v13.1h-4V11.6z"></path>
			<path class="st0" d="M45.1,8h3.7v1.5c0.5-0.7,1-1.2,1.6-1.6c0.6-0.3,1.3-0.5,2.1-0.5h0.3v3.9c-0.9,0-1.7,0.2-2.3,0.7     c-0.6,0.5-1,1-1.1,1.5c-0.1,0.5-0.2,1.3-0.2,2.1v9h-4V8z"></path>
			<path class="st0" d="M72.7,24.7h-3.7v-2.3c-0.6,0.9-1.5,1.5-2.5,2c-1.1,0.5-2.1,0.7-3.2,0.7c-1.3,0-2.4-0.2-3.5-0.7     c-1-0.5-2.1-1.4-3.2-2.6c-1.1-1.3-1.6-3.1-1.6-5.5c0-1.2,0.2-2.3,0.5-3.2c0.3-1,1.1-2.1,2.3-3.5c1.2-1.4,3.1-2.1,5.5-2.1     c2.4,0,4.2,1,5.6,2.9V8h3.7V24.7z M64.1,11.4c-1.5,0-2.7,0.5-3.6,1.4c-0.9,1-1.4,2.2-1.4,3.7c0,1.4,0.5,2.5,1.4,3.4     c1,0.9,2.1,1.4,3.5,1.4c1.4,0,2.6-0.5,3.5-1.4c0.9-0.9,1.4-2.1,1.4-3.6c0-1.4-0.4-2.6-1.3-3.5C66.7,11.9,65.5,11.4,64.1,11.4z"></path>
			<path class="st1" d="M97.9,18.6c-0.8,2-2.2,3.6-4.1,4.8c-1.9,1.2-4,1.8-6.2,1.8c-3.2,0-5.9-1.2-8.2-3.5c-2.3-2.3-3.4-5-3.4-8.2     c0-3.2,1.1-5.9,3.4-8.1C81.7,3.1,84.3,2,87.5,2c2.3,0,4.4,0.6,6.4,1.8s3.4,2.9,4.2,5h-4.7c-0.7-0.9-1.6-1.5-2.6-2     c-1-0.5-2.1-0.7-3.2-0.7c-2,0-3.8,0.8-5.2,2.3c-1.4,1.5-2.1,3.3-2.1,5.4c0,2,0.7,3.7,2.2,5.3c1.5,1.5,3.2,2.3,5.2,2.3     c1.1,0,2.1-0.2,3-0.7c0.9-0.4,1.8-1.1,2.6-1.9H97.9z"></path>
			<path class="st1" d="M101.3,8h3.7v1.5c0.5-0.7,1-1.2,1.6-1.6c0.6-0.3,1.3-0.5,2.1-0.5h0.3v3.9c-0.9,0-1.7,0.2-2.3,0.7     c-0.6,0.5-1,1-1.1,1.5c-0.1,0.5-0.2,1.3-0.2,2.1v9h-4V8z"></path>
			<path class="st1" d="M115.5,18.2c0.3,1,0.9,1.7,1.7,2.3c0.8,0.6,1.7,0.9,2.7,0.9c1.6,0,2.9-0.5,3.7-1.4h4.4     c-0.5,1.5-1.6,2.7-3.1,3.8c-1.5,1-3.2,1.6-4.9,1.6c-2.4,0-4.5-0.9-6.2-2.6c-1.7-1.7-2.6-3.8-2.6-6.2c0-2.5,0.9-4.6,2.6-6.4     c1.7-1.8,3.8-2.6,6.3-2.6c2.4,0,4.4,0.9,6.1,2.6c1.7,1.7,2.5,3.8,2.5,6.2c0,0.3,0,0.6-0.1,1c-0.1,0.4-0.1,0.7-0.1,0.9H115.5z      M124.7,14.6c-0.3-1-0.9-1.7-1.7-2.3c-0.8-0.6-1.8-0.9-2.8-0.9c-1,0-2,0.3-2.9,0.9c-0.9,0.6-1.5,1.4-1.8,2.3H124.7z"></path>
			<path class="st1" d="M149.2,24.7h-3.7v-2.3c-0.6,0.9-1.4,1.6-2.4,2c-1,0.5-2.1,0.7-3.2,0.7c-1.2,0-2.3-0.2-3.3-0.7     c-1-0.5-1.9-1.2-2.6-2c-0.7-0.9-1.3-1.8-1.7-2.8c-0.4-1-0.6-2.1-0.6-3.2c0-2.4,0.6-4.2,1.7-5.5c1.1-1.3,2.3-2.2,3.4-2.7     c1.1-0.5,2.2-0.8,3.4-0.8c1,0,2,0.2,2.9,0.6c0.9,0.4,1.7,0.9,2.3,1.7V2.4h4V24.7z M140.5,11.4c-1.3,0-2.4,0.5-3.4,1.4     c-1,1-1.5,2.1-1.5,3.4c0,1.4,0.5,2.6,1.4,3.6c0.9,1,2.1,1.5,3.5,1.5c1.4,0,2.6-0.5,3.5-1.5c1-1,1.5-2.2,1.5-3.5     c0-1.4-0.5-2.5-1.5-3.5C143.1,11.9,141.9,11.4,140.5,11.4z"></path>
			<path class="st1" d="M153.3,2.4h4v3.7h-4V2.4z M153.3,8h4v16.7h-4V8z"></path>
			<path class="st1" d="M162.2,11.6h-2V8h2V2.4h4V8h2.4v3.6h-2.4v13.1h-4V11.6z"></path>
		</g>
		<path class="st1" d="M39.4,47.1c-1.3-0.6-2.5-1.4-3.7-2.1c-1.2-0.8-2.3-1.7-3.4-2.6c-1.1-0.9-2.1-1.9-3.1-3    c-0.5-0.5-0.9-1.1-1.4-1.6c-0.1-0.1-0.2-0.3-0.3-0.4c-0.1-0.1-0.2-0.3-0.3-0.4c-0.2-0.2-0.4-0.4-0.5-0.6c-0.7-0.8-1.4-1.6-2-2.5    C24,32.9,23.5,32,23,31c-0.2-0.4-0.4-0.9-0.6-1.3H7.2c0.2,0.5,0.4,0.9,0.6,1.4c0.6,1.3,1.3,2.5,2.1,3.8c0.8,1.2,1.6,2.4,2.6,3.4    c0.9,1.1,1.9,2.1,3,3.1c1,1,2.1,1.9,3.3,2.7c1.1,0.8,2.3,1.6,3.6,2.3c1.2,0.7,2.5,1.3,3.8,1.9c1.3,0.5,2.7,1,4,1.4    c1.4,0.4,2.8,0.7,4.2,0.9c0.6,0.1,1.2,0.2,1.8,0.2c0.4,0,0.9,0.1,1.3,0.1c0.4,0,0.9,0,1.3,0.1c0.2,0,0.5,0,0.7,0    c0.2,0,0.4,0,0.5,0c0.4,0,0.8,0,1.2,0c0.5,0,0.9,0,1.4-0.1c0.6,0,1.1-0.1,1.7-0.2c1-0.1,2-0.3,3-0.6c-1.4-0.3-2.8-0.7-4.1-1.2    C42,48.3,40.7,47.7,39.4,47.1z"></path>
		<path class="st2" d="M15.5,41.4c1,1,2.1,1.9,3.3,2.7c1.1,0.8,2.3,1.6,3.6,2.3c1.2,0.7,2.5,1.3,3.8,1.9c1.3,0.5,2.7,1,4,1.4    c1.4,0.4,2.8,0.7,4.2,0.9c0.6,0.1,1.2,0.2,1.8,0.2c0.4,0,0.9,0.1,1.3,0.1c0.4,0,0.9,0,1.3,0.1c0.2,0,0.5,0,0.7,0    c0.2,0,0.4,0,0.5,0c0.4,0,0.8,0,1.2,0c0.5,0,0.9,0,1.4-0.1c0.6,0,1.1-0.1,1.7-0.2c1-0.1,2-0.3,3-0.6c-1.4-0.3-2.8-0.7-4.1-1.2    c-1.3-0.5-2.6-1-3.9-1.7c-1.3-0.6-2.5-1.4-3.7-2.1c-1.2-0.8-2.3-1.7-3.4-2.6c-1.1-0.9-2.1-1.9-3.1-3c-0.5-0.5-0.9-1.1-1.4-1.6    c-0.1-0.1-0.2-0.3-0.3-0.4c-0.1-0.1-0.2-0.3-0.3-0.4c-0.2-0.2-0.3-0.3-0.5-0.5c-4.6,0.7-8.9,1.8-12.9,3.2    C14.3,40.2,14.9,40.8,15.5,41.4z"></path>
		<path class="st0" d="M57.3,29.7c-0.4,0.9-0.8,1.7-1.3,2.5c-0.5,0.9-1.1,1.8-1.8,2.6c-0.6,0.8-1.3,1.5-2,2.2    c-0.8,0.7-1.6,1.4-2.5,2c-1.1,0.8-2.3,1.4-3.6,1.9c-1.3,0.5-2.6,0.8-3.9,0.9c-1.4,0.1-2.7,0.1-4.1-0.1c-1.3-0.2-2.6-0.6-3.8-1.2    c-1.2-0.5-2.3-1.2-3.3-1.9c-0.8-0.6-1.6-1.3-2.3-2c0,0,0,0,0,0c0.8,1.1,1.8,2.2,2.7,3.1c1,1,2,1.9,3.1,2.8    c1.1,0.9,2.2,1.7,3.4,2.4c1.2,0.7,2.4,1.4,3.6,2c1.3,0.6,2.5,1.1,3.9,1.5c0.7,0.2,1.3,0.4,2,0.6c0.2,0,0.3,0.1,0.5,0.1    c0.1,0,0.2,0,0.2,0.1c0,0,0.1,0,0.1,0c0,0,0.1,0,0.1,0c0.3-0.1,0.7-0.2,1-0.3c1.3-0.4,2.6-0.8,3.9-1.3c1.2-0.5,2.4-1.1,3.6-1.7    c1.1-0.6,2.3-1.3,3.3-2.1c1.1-0.8,2.1-1.6,3.1-2.4c0.9-0.8,1.8-1.7,2.6-2.6c0.8-0.8,1.5-1.7,2.1-2.6c0.7-0.9,1.3-1.9,1.9-2.8    c0.6-1,1.1-2,1.6-3c0.1-0.2,0.2-0.4,0.3-0.6H57.3z"></path>
		<path class="st2" d="M31.5,39.7c1,1,2,1.9,3.1,2.8c1.1,0.9,2.2,1.7,3.4,2.4c1.2,0.7,2.4,1.4,3.6,2c1.3,0.6,2.5,1.1,3.9,1.5    c0.7,0.2,1.3,0.4,2,0.6c0.2,0,0.3,0.1,0.5,0.1c0.1,0,0.2,0,0.2,0.1c0,0,0.1,0,0.1,0c0,0,0.1,0,0.1,0c0.3-0.1,0.7-0.2,1-0.3    c1.3-0.4,2.6-0.8,3.9-1.3c1.2-0.5,2.4-1.1,3.6-1.7c1.1-0.6,2.3-1.3,3.3-2.1c1.1-0.8,2.1-1.6,3.1-2.4c0.6-0.6,1.3-1.2,1.9-1.8    c-3.9-1.3-8.1-2.4-12.5-3.1c-0.2,0.2-0.3,0.3-0.5,0.5c-0.8,0.7-1.6,1.4-2.5,2c-1.1,0.8-2.3,1.4-3.6,1.9c-1.3,0.5-2.6,0.8-3.9,0.9    c-1.4,0.1-2.7,0.1-4.1-0.1c-1.3-0.2-2.6-0.6-3.8-1.2c-1.2-0.5-2.3-1.2-3.3-1.9c-0.8-0.6-1.6-1.3-2.3-2c0,0,0,0,0,0    C29.7,37.6,30.6,38.7,31.5,39.7z"></path>
	</g>
	<g>
		<path class="st0" d="M81.2,32.3c-0.6-0.2-0.9-0.6-0.9-1c0-0.6,0.5-1,1.3-1c0.3,0,0.6,0.1,0.9,0.1l0.3,0.1c0,0,0,0,0,0.1l-0.1,0.2    c0,0,0,0-0.1,0l-0.3-0.1c-0.3-0.1-0.5-0.1-0.8-0.1c-0.5,0-0.9,0.3-0.9,0.7c0,0.3,0.1,0.5,0.6,0.7l0.8,0.3c0.5,0.2,0.9,0.5,0.9,1    c0,0.7-0.6,1.1-1.4,1.1c-0.4,0-0.8-0.1-1.1-0.2l-0.2-0.1c0,0,0,0,0-0.1l0.1-0.2c0,0,0,0,0.1,0l0.2,0.1c0.3,0.1,0.6,0.2,1,0.2    c0.5,0,1-0.3,1-0.7c0-0.3-0.3-0.5-0.6-0.7L81.2,32.3z"></path>
		<path class="st0" d="M85.8,34.3c-0.2,0.1-0.4,0.1-0.6,0.1c-0.8,0-1.3-0.6-1.3-1.5c0-0.9,0.5-1.5,1.3-1.5c0.7,0,1.1,0.3,1.1,0.9    c0,0.4-0.3,0.6-0.8,0.7l-1.1,0.2c0.1,0.5,0.4,0.8,0.9,0.8c0.2,0,0.4,0,0.5-0.1l0.2-0.1c0,0,0.1,0,0.1,0l0.1,0.2c0,0,0,0.1,0,0.1    L85.8,34.3z M85.4,32.8c0.3-0.1,0.5-0.2,0.5-0.4c0-0.3-0.3-0.5-0.7-0.5c-0.5,0-0.9,0.4-0.9,1.1L85.4,32.8z"></path>
		<path class="st0" d="M89,34.3c-0.2,0.1-0.4,0.1-0.6,0.1c-0.9,0-1.3-0.6-1.3-1.5c0-0.9,0.5-1.5,1.3-1.5c0.2,0,0.3,0,0.5,0.1    l0.2,0.1c0,0,0,0,0,0.1l-0.1,0.2c0,0,0,0-0.1,0l-0.2,0c-0.2-0.1-0.3-0.1-0.4-0.1c-0.6,0-1,0.4-1,1.1c0,0.7,0.3,1.1,0.9,1.1    c0.1,0,0.3,0,0.5-0.1l0.2,0c0,0,0.1,0,0.1,0l0.1,0.2c0,0,0,0.1,0,0.1L89,34.3z"></path>
		<path class="st0" d="M92.3,33.9C92.3,33.9,92.3,33.9,92.3,33.9c-0.3,0.3-0.6,0.5-1,0.5c-0.6,0-1-0.4-1-1.1v-1.7c0,0,0-0.1,0.1-0.1    h0.3c0,0,0.1,0,0.1,0.1v1.6c0,0.5,0.3,0.8,0.7,0.8c0.6,0,0.9-0.4,0.9-1.2v-1.3c0,0,0-0.1,0.1-0.1h0.3c0,0,0.1,0,0.1,0.1v2.7    c0,0,0,0.1-0.1,0.1h-0.2c0,0-0.1,0-0.1-0.1L92.3,33.9z"></path>
		<path class="st0" d="M95.2,31.8C95.2,31.8,95.2,31.8,95.2,31.8c-0.7,0.1-1,0.6-1,1.6v0.9c0,0,0,0.1-0.1,0.1h-0.3    c0,0-0.1,0-0.1-0.1v-2.7c0,0,0-0.1,0.1-0.1h0.2c0,0,0.1,0,0.1,0.1l0,0.4c0,0,0,0.1,0.1,0c0.2-0.3,0.5-0.5,1-0.6c0,0,0.1,0,0.1,0.1    V31.8z"></path>
		<path class="st0" d="M96.9,34.3C96.9,34.3,96.8,34.3,96.9,34.3l-0.3,0.1c0,0-0.1,0-0.1-0.1v-2.4h-0.3c0,0-0.1,0-0.1-0.1v-0.2    c0,0,0-0.1,0.1-0.1h0.6c0,0,0.1,0,0.1,0.1V34.3z M96.9,30.4c0,0.2-0.1,0.3-0.3,0.3s-0.3-0.1-0.3-0.3s0.1-0.3,0.3-0.3    S96.9,30.3,96.9,30.4z"></path>
		<path class="st0" d="M98.4,32C98.4,32,98.4,32,98.4,32c0.3-0.3,0.6-0.5,1-0.5c0.6,0,1,0.4,1,1.1v1.7c0,0,0,0.1-0.1,0.1h-0.3    c0,0-0.1,0-0.1-0.1v-1.6c0-0.5-0.3-0.8-0.7-0.8c-0.6,0-0.9,0.4-0.9,1.2v1.3c0,0,0,0.1-0.1,0.1h-0.3c0,0-0.1,0-0.1-0.1v-2.7    c0,0,0-0.1,0.1-0.1h0.2c0,0,0.1,0,0.1,0.1L98.4,32z"></path>
		<path class="st0" d="M102,35.2c0.1,0,0.4,0.1,0.6,0.1c0.6,0,0.9-0.3,1-0.8c0-0.5,0-0.3,0-0.5c0,0,0-0.1-0.1,0    c-0.2,0.3-0.5,0.5-0.9,0.5c-0.7,0-1.2-0.6-1.2-1.5c0-0.9,0.5-1.5,1.3-1.5c0.3,0,0.5,0.1,0.7,0.2l0.4,0.2c0,0,0,0,0,0.1v2.5    c0,0.8-0.4,1.2-1.3,1.2c-0.2,0-0.5,0-0.7-0.1l-0.3-0.1c0,0,0,0,0-0.1l0.1-0.2c0,0,0,0,0.1,0L102,35.2z M103.3,32    c-0.1-0.1-0.4-0.1-0.6-0.1c-0.6,0-0.9,0.4-0.9,1.1c0,0.7,0.3,1.1,0.8,1.1c0.6,0,0.9-0.5,0.9-1.2v-0.8L103.3,32z"></path>
		<path class="st0" d="M107.1,34.3C107.1,34.3,107.1,34.3,107.1,34.3l-0.3,0.1c0,0-0.1,0-0.1-0.1v-3.9c0,0,0-0.1,0.1-0.1h0.3    c0,0,0.1,0,0.1,0.1V34.3z"></path>
		<path class="st0" d="M108.6,32C108.7,32,108.7,32,108.6,32c0.3-0.3,0.6-0.5,1-0.5c0.6,0,1,0.4,1,1.1v1.7c0,0,0,0.1-0.1,0.1h-0.3    c0,0-0.1,0-0.1-0.1v-1.6c0-0.5-0.3-0.8-0.7-0.8c-0.6,0-0.9,0.4-0.9,1.2v1.3c0,0,0,0.1-0.1,0.1h-0.3c0,0-0.1,0-0.1-0.1v-2.7    c0,0,0-0.1,0.1-0.1h0.2c0,0,0.1,0,0.1,0.1L108.6,32z"></path>
		<path class="st0" d="M112,31c0-0.5,0.3-0.9,0.8-0.9c0.1,0,0.2,0,0.3,0.1l0.1,0c0,0,0,0,0,0.1l-0.1,0.2c0,0,0,0-0.1,0l-0.1,0    c-0.1,0-0.1,0-0.2,0c-0.3,0-0.4,0.2-0.4,0.5v0.5h0.6c0,0,0.1,0,0.1,0.1v0.2c0,0,0,0.1-0.1,0.1h-0.6v2.4c0,0,0,0.1-0.1,0.1h-0.3    c0,0-0.1,0-0.1-0.1v-2.4h-0.3c0,0-0.1,0-0.1-0.1v-0.2c0,0,0-0.1,0.1-0.1h0.3V31z"></path>
		<path class="st0" d="M115.5,31.8C115.5,31.8,115.5,31.8,115.5,31.8c-0.7,0.1-1,0.6-1,1.6v0.9c0,0,0,0.1-0.1,0.1h-0.3    c0,0-0.1,0-0.1-0.1v-2.7c0,0,0-0.1,0.1-0.1h0.2c0,0,0.1,0,0.1,0.1l0,0.4c0,0,0,0.1,0.1,0c0.2-0.3,0.5-0.5,1-0.6c0,0,0.1,0,0.1,0.1    V31.8z"></path>
		<path class="st0" d="M116.7,31.6c0.2-0.1,0.4-0.1,0.6-0.1c0.7,0,1.2,0.4,1.2,1.1v1.7c0,0,0,0.1-0.1,0.1h-0.2c0,0-0.1,0-0.1-0.1    l0-0.3c0-0.1-0.1-0.1-0.1,0c-0.2,0.3-0.5,0.4-0.9,0.4c-0.6,0-0.9-0.3-0.9-0.8c0-0.5,0.4-0.9,1-0.9h0.9v-0.1c0-0.5-0.3-0.8-0.8-0.8    c-0.2,0-0.4,0-0.5,0.1l-0.2,0.1c0,0-0.1,0-0.1,0l-0.1-0.2c0,0,0-0.1,0-0.1L116.7,31.6z M117.2,33c-0.4,0-0.6,0.2-0.6,0.5    c0,0.3,0.2,0.5,0.6,0.5c0.6,0,0.9-0.3,0.9-1V33H117.2z"></path>
		<path class="st0" d="M120.2,33c-0.4-0.1-0.6-0.3-0.6-0.7c0-0.5,0.4-0.8,1-0.8c0.3,0,0.5,0,0.7,0.1l0.2,0.1c0,0,0,0,0,0.1l-0.1,0.2    c0,0,0,0-0.1,0l-0.2-0.1c-0.2,0-0.4-0.1-0.6-0.1c-0.4,0-0.6,0.2-0.6,0.4c0,0.2,0.1,0.3,0.4,0.4l0.7,0.2c0.5,0.1,0.7,0.4,0.7,0.7    c0,0.5-0.4,0.8-1.1,0.8c-0.3,0-0.6,0-0.9-0.1l-0.2-0.1c0,0,0,0,0-0.1l0.1-0.2c0,0,0,0,0.1,0l0.2,0.1c0.2,0.1,0.5,0.1,0.8,0.1    c0.4,0,0.7-0.2,0.7-0.5c0-0.2-0.1-0.3-0.4-0.4L120.2,33z"></path>
		<path class="st0" d="M123.8,31.6C123.9,31.6,123.9,31.6,123.8,31.6l0.1,0.3c0,0,0,0.1-0.1,0.1h-0.6v1.8c0,0.3,0.1,0.4,0.3,0.4    c0,0,0.1,0,0.2,0c0,0,0.1,0,0.1,0l0.1,0.2c0,0,0,0.1,0,0.1c-0.1,0-0.2,0.1-0.3,0.1c-0.4,0-0.7-0.3-0.7-0.7v-1.8h-0.3    c0,0-0.1,0-0.1-0.1v-0.2c0,0,0-0.1,0.1-0.1h0.3v-0.7c0,0,0-0.1,0-0.1l0.3-0.1c0,0,0.1,0,0.1,0v0.8H123.8z"></path>
		<path class="st0" d="M126.3,31.8C126.3,31.8,126.3,31.8,126.3,31.8c-0.7,0.1-1,0.6-1,1.6v0.9c0,0,0,0.1-0.1,0.1h-0.3    c0,0-0.1,0-0.1-0.1v-2.7c0,0,0-0.1,0.1-0.1h0.2c0,0,0.1,0,0.1,0.1l0,0.4c0,0,0,0.1,0.1,0c0.2-0.3,0.5-0.5,1-0.6c0,0,0.1,0,0.1,0.1    V31.8z"></path>
		<path class="st0" d="M129.4,33.9C129.4,33.9,129.3,33.9,129.4,33.9c-0.3,0.3-0.6,0.5-1,0.5c-0.6,0-1-0.4-1-1.1v-1.7    c0,0,0-0.1,0.1-0.1h0.3c0,0,0.1,0,0.1,0.1v1.6c0,0.5,0.3,0.8,0.7,0.8c0.6,0,0.9-0.4,0.9-1.2v-1.3c0,0,0-0.1,0.1-0.1h0.3    c0,0,0.1,0,0.1,0.1v2.7c0,0,0,0.1-0.1,0.1h-0.2c0,0-0.1,0-0.1-0.1L129.4,33.9z"></path>
		<path class="st0" d="M132.6,34.3c-0.2,0.1-0.4,0.1-0.6,0.1c-0.9,0-1.3-0.6-1.3-1.5c0-0.9,0.5-1.5,1.3-1.5c0.2,0,0.3,0,0.5,0.1    l0.2,0.1c0,0,0,0,0,0.1l-0.1,0.2c0,0,0,0-0.1,0l-0.2,0c-0.2-0.1-0.3-0.1-0.4-0.1c-0.6,0-1,0.4-1,1.1c0,0.7,0.3,1.1,0.9,1.1    c0.1,0,0.3,0,0.5-0.1l0.2,0c0,0,0.1,0,0.1,0l0.1,0.2c0,0,0,0.1,0,0.1L132.6,34.3z"></path>
		<path class="st0" d="M135.1,31.6C135.1,31.6,135.1,31.6,135.1,31.6l0.1,0.3c0,0,0,0.1-0.1,0.1h-0.6v1.8c0,0.3,0.1,0.4,0.3,0.4    c0,0,0.1,0,0.2,0c0,0,0.1,0,0.1,0l0.1,0.2c0,0,0,0.1,0,0.1c-0.1,0-0.2,0.1-0.3,0.1c-0.4,0-0.7-0.3-0.7-0.7v-1.8h-0.3    c0,0-0.1,0-0.1-0.1v-0.2c0,0,0-0.1,0.1-0.1h0.3v-0.7c0,0,0-0.1,0-0.1l0.3-0.1c0,0,0.1,0,0.1,0v0.8H135.1z"></path>
		<path class="st0" d="M138.2,33.9C138.2,33.9,138.1,33.9,138.2,33.9c-0.3,0.3-0.6,0.5-1,0.5c-0.6,0-1-0.4-1-1.1v-1.7    c0,0,0-0.1,0.1-0.1h0.3c0,0,0.1,0,0.1,0.1v1.6c0,0.5,0.3,0.8,0.7,0.8c0.6,0,0.9-0.4,0.9-1.2v-1.3c0,0,0-0.1,0.1-0.1h0.3    c0,0,0.1,0,0.1,0.1v2.7c0,0,0,0.1-0.1,0.1h-0.2c0,0-0.1,0-0.1-0.1L138.2,33.9z"></path>
		<path class="st0" d="M141.1,31.8C141.1,31.8,141.1,31.8,141.1,31.8c-0.7,0.1-1,0.6-1,1.6v0.9c0,0,0,0.1-0.1,0.1h-0.3    c0,0-0.1,0-0.1-0.1v-2.7c0,0,0-0.1,0.1-0.1h0.2c0,0,0.1,0,0.1,0.1l0,0.4c0,0,0,0.1,0.1,0c0.2-0.3,0.5-0.5,1-0.6c0,0,0.1,0,0.1,0.1    V31.8z"></path>
		<path class="st0" d="M143.8,34.3c-0.2,0.1-0.4,0.1-0.6,0.1c-0.8,0-1.3-0.6-1.3-1.5c0-0.9,0.5-1.5,1.3-1.5c0.7,0,1.1,0.3,1.1,0.9    c0,0.4-0.3,0.6-0.8,0.7l-1.1,0.2c0.1,0.5,0.4,0.8,0.9,0.8c0.2,0,0.4,0,0.5-0.1l0.2-0.1c0,0,0.1,0,0.1,0l0.1,0.2c0,0,0,0.1,0,0.1    L143.8,34.3z M143.4,32.8c0.3-0.1,0.5-0.2,0.5-0.4c0-0.3-0.3-0.5-0.7-0.5c-0.5,0-0.9,0.4-0.9,1.1L143.4,32.8z"></path>
		<path class="st0" d="M149.1,32.2C149.1,32.2,149.2,32.3,149.1,32.2l0.1,0.3c0,0,0,0.1-0.1,0.1h-1.8v1.7c0,0,0,0.1-0.1,0.1H147    c0,0-0.1,0-0.1-0.1v-3.9c0,0,0-0.1,0.1-0.1h2.5c0,0,0.1,0,0,0.1l-0.1,0.2c0,0,0,0-0.1,0h-2.1v1.6H149.1z"></path>
		<path class="st0" d="M151.1,34.3C151.1,34.3,151,34.3,151.1,34.3l-0.3,0.1c0,0-0.1,0-0.1-0.1v-2.4h-0.3c0,0-0.1,0-0.1-0.1v-0.2    c0,0,0-0.1,0.1-0.1h0.6c0,0,0.1,0,0.1,0.1V34.3z M151.1,30.4c0,0.2-0.1,0.3-0.3,0.3s-0.3-0.1-0.3-0.3s0.1-0.3,0.3-0.3    S151.1,30.3,151.1,30.4z"></path>
		<path class="st0" d="M152.6,32C152.6,32,152.6,32,152.6,32c0.3-0.3,0.6-0.5,1-0.5c0.6,0,1,0.4,1,1.1v1.7c0,0,0,0.1-0.1,0.1h-0.3    c0,0-0.1,0-0.1-0.1v-1.6c0-0.5-0.3-0.8-0.7-0.8c-0.6,0-0.9,0.4-0.9,1.2v1.3c0,0,0,0.1-0.1,0.1h-0.3c0,0-0.1,0-0.1-0.1v-2.7    c0,0,0-0.1,0.1-0.1h0.2c0,0,0.1,0,0.1,0.1L152.6,32z"></path>
		<path class="st0" d="M156.1,31.6c0.2-0.1,0.4-0.1,0.6-0.1c0.7,0,1.2,0.4,1.2,1.1v1.7c0,0,0,0.1-0.1,0.1h-0.2c0,0-0.1,0-0.1-0.1    l0-0.3c0-0.1-0.1-0.1-0.1,0c-0.2,0.3-0.5,0.4-0.9,0.4c-0.6,0-0.9-0.3-0.9-0.8c0-0.5,0.4-0.9,1-0.9h0.9v-0.1c0-0.5-0.3-0.8-0.8-0.8    c-0.2,0-0.4,0-0.5,0.1L156,32c0,0-0.1,0-0.1,0l-0.1-0.2c0,0,0-0.1,0-0.1L156.1,31.6z M156.6,33c-0.4,0-0.6,0.2-0.6,0.5    c0,0.3,0.2,0.5,0.6,0.5c0.6,0,0.9-0.3,0.9-1V33H156.6z"></path>
		<path class="st0" d="M159.3,32C159.4,32,159.4,32,159.3,32c0.3-0.3,0.6-0.5,1-0.5c0.6,0,1,0.4,1,1.1v1.7c0,0,0,0.1-0.1,0.1h-0.3    c0,0-0.1,0-0.1-0.1v-1.6c0-0.5-0.3-0.8-0.7-0.8c-0.6,0-0.9,0.4-0.9,1.2v1.3c0,0,0,0.1-0.1,0.1h-0.3c0,0-0.1,0-0.1-0.1v-2.7    c0,0,0-0.1,0.1-0.1h0.2c0,0,0.1,0,0.1,0.1L159.3,32z"></path>
		<path class="st0" d="M164.3,34.3c-0.2,0.1-0.4,0.1-0.6,0.1c-0.9,0-1.3-0.6-1.3-1.5c0-0.9,0.5-1.5,1.3-1.5c0.2,0,0.3,0,0.5,0.1    l0.2,0.1c0,0,0,0,0,0.1l-0.1,0.2c0,0,0,0-0.1,0l-0.2,0c-0.2-0.1-0.3-0.1-0.4-0.1c-0.6,0-1,0.4-1,1.1c0,0.7,0.3,1.1,0.9,1.1    c0.1,0,0.3,0,0.5-0.1l0.2,0c0,0,0.1,0,0.1,0l0.1,0.2c0,0,0,0.1,0,0.1L164.3,34.3z"></path>
		<path class="st0" d="M167.3,34.3c-0.2,0.1-0.4,0.1-0.6,0.1c-0.8,0-1.3-0.6-1.3-1.5c0-0.9,0.5-1.5,1.3-1.5c0.7,0,1.1,0.3,1.1,0.9    c0,0.4-0.3,0.6-0.8,0.7l-1.1,0.2c0.1,0.5,0.4,0.8,0.9,0.8c0.2,0,0.4,0,0.5-0.1l0.2-0.1c0,0,0.1,0,0.1,0l0.1,0.2c0,0,0,0.1,0,0.1    L167.3,34.3z M166.8,32.8c0.3-0.1,0.5-0.2,0.5-0.4c0-0.3-0.3-0.5-0.7-0.5c-0.5,0-0.9,0.4-0.9,1.1L166.8,32.8z"></path>
	</g>
</g>
</svg>